# xmcd
#
# Track frame offsets:
# 150
# 11408
# 22033
# 33085
# 51369
# 64097
# 76658
# 87429
# 102381
# 114746
# 139891
# 156006
# 170725
# 183032
# 199358
# 212897
# 229696
# 247851
#
# Disc length: 3558 seconds
#
# Revision: 0
# Processed by: cddbd v1.5.2PL0 Copyright (c) Steve Scherf et al.
# Submitted via: Audion 3.0.2 (http://www.panic.com/audion/)
#
DISCID=ee0de412
DTITLE=ARETHERA FRANKLIN - Greatest Hits
DYEAR=1900
DGENRE=
TTITLE0=RESPECT
TTITLE1=THINK
TTITLE2=SWEET SWEET BABY
TTITLE3=SPIRIT IN THE DARK
TTITLE4=CHAIN OF FOOLS
TTITLE5=A NATURAL WOMAN
TTITLE6=SAVE ME
TTITLE7=DO RIGHT WOMAN DO RIGHT MAN
TTITLE8=I NEVER LOVED A MAN THE WAY
TTITLE9=BRIDGE OVER TROUBLED WATER
TTITLE10=SPANISH HARLEM
TTITLE11=ROCK STEADY
TTITLE12=BABY I LOVE YOU
TTITLE13=I SAY A LITTLE PRAYER
TTITLE14=THE WEIGHT
TTITLE15=OH ME OH MY
TTITLE16=DAY DREAMING 
TTITLE17=AIN'T NO WAY
EXTD=
EXTT0=
EXTT1=
EXTT2=
EXTT3=
EXTT4=
EXTT5=
EXTT6=
EXTT7=
EXTT8=
EXTT9=
EXTT10=
EXTT11=
EXTT12=
EXTT13=
EXTT14=
EXTT15=
EXTT16=
EXTT17=
PLAYORDER=
